<?xml version="1.0" encoding="UTF-8" standalone="no"?>
<!-- Created with Inkscape (http://www.inkscape.org/) -->

<svg
   version="1.1"
   id="svg2"
   width="4705.52"
   height="5333.3335"
   viewBox="0 0 4705.52 5333.3335"
   sodipodi:docname="vecteezy_webaudio-studio-flat-icon-logo-guitar-pick-plastic-logo_33084666.eps"
   xmlns:inkscape="http://www.inkscape.org/namespaces/inkscape"
   xmlns:sodipodi="http://sodipodi.sourceforge.net/DTD/sodipodi-0.dtd"
   xmlns="http://www.w3.org/2000/svg"
   xmlns:svg="http://www.w3.org/2000/svg">
  <defs
     id="defs6" />
  <sodipodi:namedview
     id="namedview4"
     pagecolor="#ffffff"
     bordercolor="#000000"
     borderopacity="0.25"
     inkscape:showpageshadow="2"
     inkscape:pageopacity="0.0"
     inkscape:pagecheckerboard="0"
     inkscape:deskcolor="#d1d1d1" />
  <g
     id="g8"
     inkscape:groupmode="layer"
     inkscape:label="ink_ext_XXXXXX"
     transform="matrix(1.3333333,0,0,-1.3333333,0,5333.3333)">
    <g
       id="g10"
       transform="scale(0.1)">
      <path
         d="m 17645.7,39215.7 c -1852,0 -6418.5,-382.6 -9089.3,-1304.4 C 5933.85,37006 2764.43,35090.8 1780.97,33182.4 730.113,31144.7 660.41,29105 896.32,26270.3 c 247.4,-2968 3199.3,-9872.1 3228.4,-9941.4 6.13,-10.7 1279.11,-2647.1 2533.7,-4779.8 1285.23,-2185.2 4728.08,-6849.7 6357.98,-8449 1786.9,-1753.2 2911.3,-2315.799 4629.3,-2315.799 1718,0 2842.4,562.599 4629.3,2315.799 1629.9,1599.3 5072.8,6263.8 6358,8449 1255.4,2133.5 2527.6,4769.1 2540.6,4795.1 22.2,54 2974.1,6958.1 3221.5,9926.1 235.9,2834.7 166.2,4874.4 -884.7,6912.1 v 0 c -983.4,1908.4 -4152.8,3823.6 -6775.4,4728.9 -2670.8,921.8 -7237.3,1304.4 -9089.3,1304.4 z M 17645.7,0 c -2176.8,0 -3499.5,892.699 -5179.2,2540.2 -1698.1,1666.7 -5147.85,6340 -6483.63,8611.4 -1272.21,2161.1 -2558.21,4825.7 -2571.23,4852.5 -130.97,303.3 -3038.449,7106.3 -3296.57,10201.1 -247.398,2976.8 -168.5075,5131.7 968.9,7336.5 1128.22,2189.4 4532.02,4183.9 7216.61,5111 2758.12,952.1 7447.12,1347.3 9345.12,1347.3 1898,0 6587,-395.2 9345.1,-1347.3 2684.6,-927.1 6088.4,-2921.6 7216.6,-5111 1137.4,-2204.8 1216.3,-4359.7 969,-7336.5 -258.2,-3094.8 -3165.6,-9897.8 -3289.7,-10185.7 -19.9,-42.2 -1305.9,-2706.8 -2578.2,-4867.9 C 27972.8,8880.2 24523,4206.9 22824.9,2540.2 21145.2,892.699 19822.5,0 17645.7,0"
         style="fill:#000000;fill-opacity:1;fill-rule:nonzero;stroke:none"
         id="path12" />
    </g>
  </g>
</svg>
